<svg xmlns="http://www.w3.org/2000/svg">
  <symbol id="all" fill="#9f9fab" x="0px" y="0px"
	 viewBox="0 0 486.8 486.8" style="enable-background:new 0 0 486.8 486.8;" xml:space="preserve">
    <title>All</title>
    <g>
      <g>
        <path d="M356.1,0C284,0,225.4,58.6,225.4,130.7V167c0,9.9,8.1,18,18,18c9.9,0,18-8.1,18-18v-36.3c0-52.2,42.5-94.7,94.7-94.7
          s94.7,42.5,94.7,94.7s-42.5,94.7-94.7,94.7H130.7C58.6,225.4,0,284,0,356.1s58.6,130.7,130.7,130.7s130.7-58.6,130.7-130.7v-35.9
          c0-9.9-8.1-18-18-18c-9.9,0-18,8.1-18,18v35.9c0,52.2-42.5,94.7-94.7,94.7c-52.2,0-94.7-42.5-94.7-94.7s42.5-94.7,94.7-94.7h225.4
          c72.1,0,130.7-58.6,130.7-130.7S428.2,0,356.1,0z"/>
      </g>
    </g>
  </symbol>
  <symbol id="all-active" fill="#3b3a3a" x="0px" y="0px"
	 viewBox="0 0 486.8 486.8" style="enable-background:new 0 0 486.8 486.8;" xml:space="preserve">
    <title>All</title>
    <g>
      <g>
        <path d="M356.1,0C284,0,225.4,58.6,225.4,130.7V167c0,9.9,8.1,18,18,18c9.9,0,18-8.1,18-18v-36.3c0-52.2,42.5-94.7,94.7-94.7
          s94.7,42.5,94.7,94.7s-42.5,94.7-94.7,94.7H130.7C58.6,225.4,0,284,0,356.1s58.6,130.7,130.7,130.7s130.7-58.6,130.7-130.7v-35.9
          c0-9.9-8.1-18-18-18c-9.9,0-18,8.1-18,18v35.9c0,52.2-42.5,94.7-94.7,94.7c-52.2,0-94.7-42.5-94.7-94.7s42.5-94.7,94.7-94.7h225.4
          c72.1,0,130.7-58.6,130.7-130.7S428.2,0,356.1,0z"/>
      </g>
    </g>
  </symbol>
  <symbol id="graphic" fill="#9f9fab" x="0px" y="0px"
	 viewBox="0 0 32 32" style="enable-background:new 0 0 32 32;" xml:space="preserve" >
    <title>Graphic Design</title>
    <g id="Capa_1">
      <g>
        <g id="Transform">
          <g>
            <path d="M29.5,8C30.9,8,32,6.9,32,5.5v-3C32,1.1,30.9,0,29.5,0h-3C25.1,0,24,1.1,24,2.5V3H8V2.5C8,1.1,6.9,0,5.5,0h-3
              C1.1,0,0,1.1,0,2.5v3C0,6.9,1.1,8,2.5,8H3v16H2.5C1.1,24,0,25.1,0,26.5v3C0,30.9,1.1,32,2.5,32h3C6.9,32,8,30.9,8,29.5V29h12.4
              c0.6,0,1-0.4,1-1v0c0-0.6-0.4-1-1-1H8v-0.5C8,25.1,6.9,24,5.5,24H5V8h0.5C6.9,8,8,6.9,8,5.5V5h16v0.5C24,6.9,25.1,8,26.5,8H27
              v16h-0.5c-1.4,0-2.5,1.1-2.5,2.5V27h0v2h0v0.5c0,1.4,1.1,2.5,2.5,2.5h3c1.4,0,2.5-1.1,2.5-2.5v-3c0-1.4-1.1-2.5-2.5-2.5H29V8
              H29.5z M5.5,26C5.8,26,6,26.2,6,26.5v3C6,29.8,5.8,30,5.5,30h-3C2.2,30,2,29.8,2,29.5v-3C2,26.2,2.2,26,2.5,26H5.5z M6,5.5
              C6,5.8,5.8,6,5.5,6h-3C2.2,6,2,5.8,2,5.5v-3C2,2.2,2.2,2,2.5,2h3C5.8,2,6,2.2,6,2.5V5.5z M29.5,26c0.3,0,0.5,0.2,0.5,0.5v3
              c0,0.3-0.2,0.5-0.5,0.5h-3c-0.3,0-0.5-0.2-0.5-0.5v-3c0-0.3,0.2-0.5,0.5-0.5H29.5z M26.5,6C26.2,6,26,5.8,26,5.5v-3
              C26,2.2,26.2,2,26.5,2h3C29.8,2,30,2.2,30,2.5v3C30,5.8,29.8,6,29.5,6H26.5z"/>
          </g>
        </g>
      </g>
      <g>
        <g>
          <path d="M76,37.6l-7.8-14V10.2h1.3c0.7,0,1.3-0.6,1.3-1.3c0-0.7-0.6-1.3-1.3-1.3h-2.7h-8h-2.7c-0.7,0-1.3,0.6-1.3,1.3
            s0.6,1.3,1.3,1.3h1.3v13.3l-7.8,14c-0.2,0.4-0.2,0.9,0,1.3c0.2,0.4,0.7,0.7,1.1,0.7h24c0.5,0,0.9-0.3,1.1-0.7
            C76.2,38.5,76.2,38,76,37.6z M53.1,36.9L60,24.5c0.1-0.2,0.2-0.4,0.2-0.6v-3h2.7c0.7,0,1.3-0.6,1.3-1.3c0-0.7-0.6-1.3-1.3-1.3
            h-2.7v-2.7h2.7c0.7,0,1.3-0.6,1.3-1.3s-0.6-1.3-1.3-1.3h-2.7v-2.7h5.3v13.7c0,0.2,0.1,0.5,0.2,0.6l6.9,12.4L53.1,36.9L53.1,36.9z
            "/>
        </g>
      </g>
      <path d="M97.5,17.4v16c0,0.1,0,0.1,0,0.2c0,0.1,0,0.1,0,0.2c0,0,0,0,0,0.1c0,0.1-0.1,0.2-0.1,0.2l-3.9,4.8
        c-0.1,0.1-0.1,0.1-0.2,0.2c-0.2,0.3-0.5,0.5-0.9,0.5c-0.4,0-0.7-0.2-0.9-0.4c-0.1-0.1-0.2-0.1-0.2-0.2l-3.9-4.8
        c-0.1-0.1-0.1-0.2-0.1-0.2c0,0,0,0,0-0.1c0-0.1,0-0.1,0-0.2c0-0.1,0-0.1,0-0.2V18.7v-1.3v-4.6c0-2.9,2.3-5.2,5.2-5.2
        s5.2,2.3,5.2,5.2c0,0.2,0,0.4-0.1,0.6h0c0,0.5-0.5,0.9-1,0.9c-0.6,0-1-0.5-1-1c0,0,0,0,0-0.1c0-0.1,0-0.2,0-0.4
        c0-1.8-1.4-3.2-3.2-3.2S89,11.2,89,12.9c0,0,0,0.1,0,0.1h0v5.4v0.3v14.4l3.2,4l3.2-4V18.4h-3.3c-0.6,0-1-0.4-1-1c0-0.6,0.4-1,1-1
        h4.2c0,0,0,0,0.1,0c0,0,0,0,0,0C97,16.4,97.5,16.9,97.5,17.4z"/>
    </g>
    <g id="Слой_2">
      <path d="M64.5,74H52.9h-1.8h-9.6L49,61c0.1-0.2,0.2-0.5,0.1-0.8v-8.3c0,0,0.1,0,0.1,0h2.7c0.6,0,1-0.4,1-1s-0.4-1-1-1
        h-2.7c-0.1,0-0.1,0-0.1,0v-3.4h6.1v13.6c0,0,0,0.1,0,0.1c0,0.2,0,0.4,0.1,0.5l5.5,9.5c0.3,0.5,0.9,0.6,1.4,0.4
        c0.5-0.3,0.6-0.9,0.4-1.4l-5.3-9.2V46.6h1.3c0.6,0,1-0.4,1-1s-0.4-1-1-1h-13c-0.6,0-1,0.4-1,1s0.4,1,1,1h1.5v13.6c0,0,0,0,0,0.1
        l-8.1,14.1c-0.1,0.2-0.2,0.4-0.2,0.6v0c0,0.6,0.4,1,1,1h11.4h1.8h11.6c0.5,0,0.9-0.4,0.9-0.9v-0.2C65.4,74.4,65,74,64.5,74z"/>
    </g>
  </symbol>
  <symbol id="graphic-active" fill="#3b3a3a" x="0px" y="0px"
	 viewBox="0 0 32 32" style="enable-background:new 0 0 32 32;" xml:space="preserve" >
    <title>Graphic Design</title>
    <g id="Capa_1">
      <g>
        <g id="Transform">
          <g>
            <path d="M29.5,8C30.9,8,32,6.9,32,5.5v-3C32,1.1,30.9,0,29.5,0h-3C25.1,0,24,1.1,24,2.5V3H8V2.5C8,1.1,6.9,0,5.5,0h-3
              C1.1,0,0,1.1,0,2.5v3C0,6.9,1.1,8,2.5,8H3v16H2.5C1.1,24,0,25.1,0,26.5v3C0,30.9,1.1,32,2.5,32h3C6.9,32,8,30.9,8,29.5V29h12.4
              c0.6,0,1-0.4,1-1v0c0-0.6-0.4-1-1-1H8v-0.5C8,25.1,6.9,24,5.5,24H5V8h0.5C6.9,8,8,6.9,8,5.5V5h16v0.5C24,6.9,25.1,8,26.5,8H27
              v16h-0.5c-1.4,0-2.5,1.1-2.5,2.5V27h0v2h0v0.5c0,1.4,1.1,2.5,2.5,2.5h3c1.4,0,2.5-1.1,2.5-2.5v-3c0-1.4-1.1-2.5-2.5-2.5H29V8
              H29.5z M5.5,26C5.8,26,6,26.2,6,26.5v3C6,29.8,5.8,30,5.5,30h-3C2.2,30,2,29.8,2,29.5v-3C2,26.2,2.2,26,2.5,26H5.5z M6,5.5
              C6,5.8,5.8,6,5.5,6h-3C2.2,6,2,5.8,2,5.5v-3C2,2.2,2.2,2,2.5,2h3C5.8,2,6,2.2,6,2.5V5.5z M29.5,26c0.3,0,0.5,0.2,0.5,0.5v3
              c0,0.3-0.2,0.5-0.5,0.5h-3c-0.3,0-0.5-0.2-0.5-0.5v-3c0-0.3,0.2-0.5,0.5-0.5H29.5z M26.5,6C26.2,6,26,5.8,26,5.5v-3
              C26,2.2,26.2,2,26.5,2h3C29.8,2,30,2.2,30,2.5v3C30,5.8,29.8,6,29.5,6H26.5z"/>
          </g>
        </g>
      </g>
      <g>
        <g>
          <path d="M76,37.6l-7.8-14V10.2h1.3c0.7,0,1.3-0.6,1.3-1.3c0-0.7-0.6-1.3-1.3-1.3h-2.7h-8h-2.7c-0.7,0-1.3,0.6-1.3,1.3
            s0.6,1.3,1.3,1.3h1.3v13.3l-7.8,14c-0.2,0.4-0.2,0.9,0,1.3c0.2,0.4,0.7,0.7,1.1,0.7h24c0.5,0,0.9-0.3,1.1-0.7
            C76.2,38.5,76.2,38,76,37.6z M53.1,36.9L60,24.5c0.1-0.2,0.2-0.4,0.2-0.6v-3h2.7c0.7,0,1.3-0.6,1.3-1.3c0-0.7-0.6-1.3-1.3-1.3
            h-2.7v-2.7h2.7c0.7,0,1.3-0.6,1.3-1.3s-0.6-1.3-1.3-1.3h-2.7v-2.7h5.3v13.7c0,0.2,0.1,0.5,0.2,0.6l6.9,12.4L53.1,36.9L53.1,36.9z
            "/>
        </g>
      </g>
      <path d="M97.5,17.4v16c0,0.1,0,0.1,0,0.2c0,0.1,0,0.1,0,0.2c0,0,0,0,0,0.1c0,0.1-0.1,0.2-0.1,0.2l-3.9,4.8
        c-0.1,0.1-0.1,0.1-0.2,0.2c-0.2,0.3-0.5,0.5-0.9,0.5c-0.4,0-0.7-0.2-0.9-0.4c-0.1-0.1-0.2-0.1-0.2-0.2l-3.9-4.8
        c-0.1-0.1-0.1-0.2-0.1-0.2c0,0,0,0,0-0.1c0-0.1,0-0.1,0-0.2c0-0.1,0-0.1,0-0.2V18.7v-1.3v-4.6c0-2.9,2.3-5.2,5.2-5.2
        s5.2,2.3,5.2,5.2c0,0.2,0,0.4-0.1,0.6h0c0,0.5-0.5,0.9-1,0.9c-0.6,0-1-0.5-1-1c0,0,0,0,0-0.1c0-0.1,0-0.2,0-0.4
        c0-1.8-1.4-3.2-3.2-3.2S89,11.2,89,12.9c0,0,0,0.1,0,0.1h0v5.4v0.3v14.4l3.2,4l3.2-4V18.4h-3.3c-0.6,0-1-0.4-1-1c0-0.6,0.4-1,1-1
        h4.2c0,0,0,0,0.1,0c0,0,0,0,0,0C97,16.4,97.5,16.9,97.5,17.4z"/>
    </g>
    <g id="Слой_2">
      <path d="M64.5,74H52.9h-1.8h-9.6L49,61c0.1-0.2,0.2-0.5,0.1-0.8v-8.3c0,0,0.1,0,0.1,0h2.7c0.6,0,1-0.4,1-1s-0.4-1-1-1
        h-2.7c-0.1,0-0.1,0-0.1,0v-3.4h6.1v13.6c0,0,0,0.1,0,0.1c0,0.2,0,0.4,0.1,0.5l5.5,9.5c0.3,0.5,0.9,0.6,1.4,0.4
        c0.5-0.3,0.6-0.9,0.4-1.4l-5.3-9.2V46.6h1.3c0.6,0,1-0.4,1-1s-0.4-1-1-1h-13c-0.6,0-1,0.4-1,1s0.4,1,1,1h1.5v13.6c0,0,0,0,0,0.1
        l-8.1,14.1c-0.1,0.2-0.2,0.4-0.2,0.6v0c0,0.6,0.4,1,1,1h11.4h1.8h11.6c0.5,0,0.9-0.4,0.9-0.9v-0.2C65.4,74.4,65,74,64.5,74z"/>
    </g>
  </symbol>
  <symbol id="ux" fill="#9f9fab" viewBox="0 0 26.67 31.41">
    <title>UX</title>
    <g id="Слой_2" data-name="Слой 2">
      <g id="Слой_2-2" data-name="Слой 2">
        <path class="cls-1" d="M25.77,29.41h-23l7.51-13a1,1,0,0,0,.08-.79V7.31l.15,0h2.71a1,1,0,0,0,0-2H10.5l-.15,0V2H16.5V15.63s0,.07,0,.1a1,1,0,0,0,.11.55l5.48,9.47a1,1,0,0,0,1.36.37,1,1,0,0,0,.37-1.37L18.5,15.51V2h1.33a1,1,0,0,0,0-2h-13a1,1,0,0,0,0,2H8.35V15.63s0,0,0,.07L.23,29.79a1,1,0,0,0-.23.62H0a1,1,0,0,0,1,1H25.77a.9.9,0,0,0,.9-.9v-.2A.91.91,0,0,0,25.77,29.41Z"/>
      </g>
    </g>
  </symbol>
  <symbol id="ux-active" fill="#3b3a3a" viewBox="0 0 26.67 31.41">
    <title>UX</title>
    <g id="Слой_2" data-name="Слой 2">
      <g id="Слой_2-2" data-name="Слой 2">
        <path class="cls-1" d="M25.77,29.41h-23l7.51-13a1,1,0,0,0,.08-.79V7.31l.15,0h2.71a1,1,0,0,0,0-2H10.5l-.15,0V2H16.5V15.63s0,.07,0,.1a1,1,0,0,0,.11.55l5.48,9.47a1,1,0,0,0,1.36.37,1,1,0,0,0,.37-1.37L18.5,15.51V2h1.33a1,1,0,0,0,0-2h-13a1,1,0,0,0,0,2H8.35V15.63s0,0,0,.07L.23,29.79a1,1,0,0,0-.23.62H0a1,1,0,0,0,1,1H25.77a.9.9,0,0,0,.9-.9v-.2A.91.91,0,0,0,25.77,29.41Z"/>
      </g>
    </g>
  </symbol>
  <symbol id="ui" fill="#9f9fab" viewBox="0 0 33.08 25.8">
    <title>UI</title>
    <g id="Слой_2" data-name="Слой 2">
      <g id="Слой_1-2" data-name="Слой 1">
        <path class="cls-1" d="M29.62,8.74H28.39V3.93C28.39.22,25.82,0,24.92,0H3.47C2.57,0,0,.22,0,3.93V17c0,3.72,2.57,3.93,3.47,3.94h9.85V23.8H10.19a1,1,0,0,0,0,2h8.26a1,1,0,0,0,0-2H15.32V20.92H18.2a1,1,0,1,0,0-2H3.81A1.81,1.81,0,0,1,2,17.11V3.81A1.81,1.81,0,0,1,3.81,2H24.58a1.81,1.81,0,0,1,1.81,1.81V8.74H25.22c-.9,0-3.47.22-3.47,3.94v9.18c0,3.71,2.57,3.93,3.47,3.94h5a1,1,0,0,0,0-2h-5a1.45,1.45,0,0,1-1.45-1.45V12.19a1.45,1.45,0,0,1,1.45-1.45h4.43a1.45,1.45,0,0,1,1.45,1.45v3.4h0v4.56a1,1,0,0,0,2,0V12.68C33.08,9,30.51,8.75,29.62,8.74Z"/>
      </g>
    </g>
  </symbol>
  <symbol id="ui-active" fill="#3b3a3a" viewBox="0 0 33.08 25.8">
    <title>UI</title>
    <g id="Слой_2" data-name="Слой 2">
      <g id="Слой_1-2" data-name="Слой 1">
        <path class="cls-1" d="M29.62,8.74H28.39V3.93C28.39.22,25.82,0,24.92,0H3.47C2.57,0,0,.22,0,3.93V17c0,3.72,2.57,3.93,3.47,3.94h9.85V23.8H10.19a1,1,0,0,0,0,2h8.26a1,1,0,0,0,0-2H15.32V20.92H18.2a1,1,0,1,0,0-2H3.81A1.81,1.81,0,0,1,2,17.11V3.81A1.81,1.81,0,0,1,3.81,2H24.58a1.81,1.81,0,0,1,1.81,1.81V8.74H25.22c-.9,0-3.47.22-3.47,3.94v9.18c0,3.71,2.57,3.93,3.47,3.94h5a1,1,0,0,0,0-2h-5a1.45,1.45,0,0,1-1.45-1.45V12.19a1.45,1.45,0,0,1,1.45-1.45h4.43a1.45,1.45,0,0,1,1.45,1.45v3.4h0v4.56a1,1,0,0,0,2,0V12.68C33.08,9,30.51,8.75,29.62,8.74Z"/>
      </g>
    </g>
  </symbol>
  <symbol id="motion" fill="#9f9fab" viewBox="0 0 31.86 31.86">
    <title>Motion_design</title>
    <g id="Слой_2" data-name="Слой 2">
      <g id="Слой_1-2" data-name="Слой 1">
        <path class="cls-1" d="M15.93,0A15.93,15.93,0,1,0,31.86,15.93,15.93,15.93,0,0,0,15.93,0Zm0,29.83a13.9,13.9,0,1,1,13.9-13.9A13.91,13.91,0,0,1,15.93,29.83Z"/>
        <path class="cls-1" d="M22.08,15.65a.6.6,0,0,0-.06-.19L22,15.38a0,0,0,0,1,0,0,1,1,0,0,0-.34-.28l-4.53-2.61a1,1,0,0,0-1.37.36,1,1,0,0,0,.37,1.37L19.14,16l-5.42,3.12v-8a1,1,0,0,0-2,0v9.71s0,.1,0,.15a.64.64,0,0,0,0,.07.9.9,0,0,0,.08.23.29.29,0,0,0,0,.1,1,1,0,0,0,1.36.37l8.36-4.83a.91.91,0,0,0,.34-.28s0,0,0,0l.06-.07a.7.7,0,0,0,.06-.19.56.56,0,0,0,0-.12.68.68,0,0,0,0-.2.75.75,0,0,0,0-.21A.49.49,0,0,0,22.08,15.65Z"/>
      </g>
    </g>
  </symbol>
  <symbol id="motion-active" fill="#3b3a3a" viewBox="0 0 31.86 31.86">
    <title>Motion_design</title>
    <g id="Слой_2" data-name="Слой 2">
      <g id="Слой_1-2" data-name="Слой 1">
        <path class="cls-1" d="M15.93,0A15.93,15.93,0,1,0,31.86,15.93,15.93,15.93,0,0,0,15.93,0Zm0,29.83a13.9,13.9,0,1,1,13.9-13.9A13.91,13.91,0,0,1,15.93,29.83Z"/>
        <path class="cls-1" d="M22.08,15.65a.6.6,0,0,0-.06-.19L22,15.38a0,0,0,0,1,0,0,1,1,0,0,0-.34-.28l-4.53-2.61a1,1,0,0,0-1.37.36,1,1,0,0,0,.37,1.37L19.14,16l-5.42,3.12v-8a1,1,0,0,0-2,0v9.71s0,.1,0,.15a.64.64,0,0,0,0,.07.9.9,0,0,0,.08.23.29.29,0,0,0,0,.1,1,1,0,0,0,1.36.37l8.36-4.83a.91.91,0,0,0,.34-.28s0,0,0,0l.06-.07a.7.7,0,0,0,.06-.19.56.56,0,0,0,0-.12.68.68,0,0,0,0-.2.75.75,0,0,0,0-.21A.49.49,0,0,0,22.08,15.65Z"/>
      </g>
    </g>
  </symbol>
  <symbol id="architecture" fill="#9f9fab" viewBox="0 0 22.63 29.94">
    <title>Architecture</title>
    <g id="Слой_2" data-name="Слой 2">
      <g id="Слой_1-2" data-name="Слой 1">
        <path class="cls-1" d="M7.56,2V4.91a1,1,0,0,0,2,0V1a1,1,0,0,0-1-1H1A1,1,0,0,0,0,1V28.94a1,1,0,0,0,2,0V2Z"/>
        <path class="cls-1" d="M22.55,9.88a1,1,0,0,0-.92-.63h-13a1,1,0,0,0-.47.13.92.92,0,0,0-.61.86V29a.93.93,0,0,0,.93.93h.15A.93.93,0,0,0,9.56,29V11.25H20.63V27.94H15.09V16.59a1,1,0,0,0-2,0V28.94a1,1,0,0,0,1,1,.35.35,0,0,0,.11,0,.45.45,0,0,0,.11,0H21.7a.93.93,0,0,0,.93-.93V10.24A.86.86,0,0,0,22.55,9.88Z"/>
      </g>
    </g>
  </symbol>
  <symbol id="architecture-active" fill="#3b3a3a" viewBox="0 0 22.63 29.94">
    <title>Architecture</title>
    <g id="Слой_2" data-name="Слой 2">
      <g id="Слой_1-2" data-name="Слой 1">
        <path class="cls-1" d="M7.56,2V4.91a1,1,0,0,0,2,0V1a1,1,0,0,0-1-1H1A1,1,0,0,0,0,1V28.94a1,1,0,0,0,2,0V2Z"/>
        <path class="cls-1" d="M22.55,9.88a1,1,0,0,0-.92-.63h-13a1,1,0,0,0-.47.13.92.92,0,0,0-.61.86V29a.93.93,0,0,0,.93.93h.15A.93.93,0,0,0,9.56,29V11.25H20.63V27.94H15.09V16.59a1,1,0,0,0-2,0V28.94a1,1,0,0,0,1,1,.35.35,0,0,0,.11,0,.45.45,0,0,0,.11,0H21.7a.93.93,0,0,0,.93-.93V10.24A.86.86,0,0,0,22.55,9.88Z"/>
      </g>
    </g>
  </symbol>
  <symbol id="photography" fill="#9f9fab" viewBox="0 0 31.74 26.12">
    <title>Photography</title>
    <g id="Слой_2" data-name="Слой 2">
      <g id="Слой_1-2" data-name="Слой 1">
        <path class="cls-1" d="M27.8,4.19H23a1,1,0,0,0,0,2h4.95A1.81,1.81,0,0,1,29.74,8V22.31a1.81,1.81,0,0,1-1.81,1.81H3.81A1.81,1.81,0,0,1,2,22.31V8A1.81,1.81,0,0,1,3.81,6.19L9,6.24h.48A1.52,1.52,0,0,0,11,4.72,2.72,2.72,0,0,1,13.67,2h4a1,1,0,0,0,0-2H12.88c-3,0-4.13,3.29-4.14,4.19H3.93C.22,4.19,0,6.76,0,7.66v15c0,.9.22,3.47,3.93,3.47H27.8c3.71,0,3.93-2.57,3.94-3.47v-15C31.73,6.76,31.51,4.19,27.8,4.19Z"/>
        <path class="cls-1" d="M11.13,14.61A4.84,4.84,0,0,1,16,9.78h0a1.08,1.08,0,0,0,0-2.16h0a7,7,0,0,0-7,7.12,7.11,7.11,0,0,0,6.88,6.92A7,7,0,0,0,23,14.78h0a1.09,1.09,0,0,0-2.17,0h0A4.83,4.83,0,0,1,16,19.47,4.92,4.92,0,0,1,11.13,14.61Z"/>
      </g>
    </g>
  </symbol>
  <symbol id="photography-active" fill="#3b3a3a" viewBox="0 0 31.74 26.12">
    <title>Photography</title>
    <g id="Слой_2" data-name="Слой 2">
      <g id="Слой_1-2" data-name="Слой 1">
        <path class="cls-1" d="M27.8,4.19H23a1,1,0,0,0,0,2h4.95A1.81,1.81,0,0,1,29.74,8V22.31a1.81,1.81,0,0,1-1.81,1.81H3.81A1.81,1.81,0,0,1,2,22.31V8A1.81,1.81,0,0,1,3.81,6.19L9,6.24h.48A1.52,1.52,0,0,0,11,4.72,2.72,2.72,0,0,1,13.67,2h4a1,1,0,0,0,0-2H12.88c-3,0-4.13,3.29-4.14,4.19H3.93C.22,4.19,0,6.76,0,7.66v15c0,.9.22,3.47,3.93,3.47H27.8c3.71,0,3.93-2.57,3.94-3.47v-15C31.73,6.76,31.51,4.19,27.8,4.19Z"/>
        <path class="cls-1" d="M11.13,14.61A4.84,4.84,0,0,1,16,9.78h0a1.08,1.08,0,0,0,0-2.16h0a7,7,0,0,0-7,7.12,7.11,7.11,0,0,0,6.88,6.92A7,7,0,0,0,23,14.78h0a1.09,1.09,0,0,0-2.17,0h0A4.83,4.83,0,0,1,16,19.47,4.92,4.92,0,0,1,11.13,14.61Z"/>
      </g>
    </g>
  </symbol>
  <symbol id="illustration" fill="#9f9fab" viewBox="0 0 10.47 31.93">
    <title>Illustration</title>
    <g id="Слой_2" data-name="Слой 2">
        <g id="Capa_1" data-name="Capa 1">
          <path class="cls-1" d="M10.47,9.83v16a1,1,0,0,1,0,.17,1.06,1.06,0,0,1,0,.19l0,.07a1.67,1.67,0,0,1-.12.23L6.35,31.31a.87.87,0,0,1-.21.17,1.14,1.14,0,0,1-.9.45,1.16,1.16,0,0,1-.91-.44,1.16,1.16,0,0,1-.22-.18L.23,26.46a.72.72,0,0,1-.12-.23.43.43,0,0,1,0-.07A.58.58,0,0,1,0,26a.53.53,0,0,1,0-.17V5.22a5.22,5.22,0,0,1,10.44,0,6,6,0,0,1-.06.61h0a1,1,0,0,1-2-.08s0,0,0-.06,0-.24,0-.36A3.19,3.19,0,0,0,2,5.33s0,.07,0,.11H2v20l3.23,4,3.24-4V10.82H5.13a1,1,0,1,1,0-2H9.37l.06,0h0A1,1,0,0,1,10.47,9.83Z"/>
        </g>
      </g>
  </symbol>
  <symbol id="illustration-active" fill="#3b3a3a" viewBox="0 0 10.47 31.93">
    <title>Illustration</title>
    <g id="Слой_2" data-name="Слой 2">
        <g id="Capa_1" data-name="Capa 1">
          <path class="cls-1" d="M10.47,9.83v16a1,1,0,0,1,0,.17,1.06,1.06,0,0,1,0,.19l0,.07a1.67,1.67,0,0,1-.12.23L6.35,31.31a.87.87,0,0,1-.21.17,1.14,1.14,0,0,1-.9.45,1.16,1.16,0,0,1-.91-.44,1.16,1.16,0,0,1-.22-.18L.23,26.46a.72.72,0,0,1-.12-.23.43.43,0,0,1,0-.07A.58.58,0,0,1,0,26a.53.53,0,0,1,0-.17V5.22a5.22,5.22,0,0,1,10.44,0,6,6,0,0,1-.06.61h0a1,1,0,0,1-2-.08s0,0,0-.06,0-.24,0-.36A3.19,3.19,0,0,0,2,5.33s0,.07,0,.11H2v20l3.23,4,3.24-4V10.82H5.13a1,1,0,1,1,0-2H9.37l.06,0h0A1,1,0,0,1,10.47,9.83Z"/>
        </g>
      </g>
  </symbol>
  <symbol id="product" fill="#9f9fab" viewBox="0 0 23.82 32.11">
    <title>product_design</title>
    <g id="Слой_2" data-name="Слой 2">
      <g id="Слой_1-2" data-name="Слой 1">
      <path class="cls-1" d="M22.82,7.5a1,1,0,0,0-1,1V28.3A1.81,1.81,0,0,1,20,30.11H3.81A1.81,1.81,0,0,1,2,28.3V9.5H5.63v2.35H5a1,1,0,0,0,0,2H8.23a1,1,0,0,0,0-2H7.65l0-6.69A3.29,3.29,0,0,1,10.81,2h.34a1.06,1.06,0,0,0,.19,0L12,2l.68,0a1.06,1.06,0,0,0,.19,0h.35a3.28,3.28,0,0,1,3.12,3.2V7.5H12a1,1,0,0,0,0,2h4.36v2.34h-.59a1,1,0,1,0,0,2h3.27a1,1,0,0,0,0-2H18.4l0-6.72A5.27,5.27,0,0,0,13.7,0H10.34A5.26,5.26,0,0,0,5.62,5.12V7.51H1a1,1,0,0,0-1,1V28.64c0,.9.22,3.47,3.93,3.47h16c3.72,0,3.93-2.57,3.94-3.47V8.5A1,1,0,0,0,22.82,7.5Z"/>
      </g>
    </g>
  </symbol>
  <symbol id="product-active" fill="#3b3a3a" viewBox="0 0 23.82 32.11">
    <title>product_design</title>
    <g id="Слой_2" data-name="Слой 2">
      <g id="Слой_1-2" data-name="Слой 1">
      <path class="cls-1" d="M22.82,7.5a1,1,0,0,0-1,1V28.3A1.81,1.81,0,0,1,20,30.11H3.81A1.81,1.81,0,0,1,2,28.3V9.5H5.63v2.35H5a1,1,0,0,0,0,2H8.23a1,1,0,0,0,0-2H7.65l0-6.69A3.29,3.29,0,0,1,10.81,2h.34a1.06,1.06,0,0,0,.19,0L12,2l.68,0a1.06,1.06,0,0,0,.19,0h.35a3.28,3.28,0,0,1,3.12,3.2V7.5H12a1,1,0,0,0,0,2h4.36v2.34h-.59a1,1,0,1,0,0,2h3.27a1,1,0,0,0,0-2H18.4l0-6.72A5.27,5.27,0,0,0,13.7,0H10.34A5.26,5.26,0,0,0,5.62,5.12V7.51H1a1,1,0,0,0-1,1V28.64c0,.9.22,3.47,3.93,3.47h16c3.72,0,3.93-2.57,3.94-3.47V8.5A1,1,0,0,0,22.82,7.5Z"/>
      </g>
    </g>
  </symbol>
  <symbol id="dropdown" fill="#9f9fab" viewBox="0 0 12 6.84">
    <g transform="translate(-1163 -482)">
      <path class="a" d="M6,103.981a.838.838,0,0,1-.594-.246l-5.16-5.16a.84.84,0,0,1,1.188-1.188L6,101.952l4.565-4.566a.84.84,0,1,1,1.188,1.188l-5.16,5.16A.838.838,0,0,1,6,103.981Z" transform="translate(1162.999 384.859)"/>
    </g>
  </symbol>
  <symbol id="dropdown-active" fill="#3b3a3a" viewBox="0 0 12 6.84">
    <g transform="translate(-1163 -482)">
      <path class="a" d="M6,103.981a.838.838,0,0,1-.594-.246l-5.16-5.16a.84.84,0,0,1,1.188-1.188L6,101.952l4.565-4.566a.84.84,0,1,1,1.188,1.188l-5.16,5.16A.838.838,0,0,1,6,103.981Z" transform="translate(1162.999 384.859)"/>
    </g>
  </symbol>
</svg>