<svg xmlns="http://www.w3.org/2000/svg">
  <symbol id="notification" viewBox="0 0 12 12.2">
    <defs><style>.cls-1{fill:#3B3A3A;}</style></defs><title>Ресурс 19</title><g id="Слой_2" data-name="Слой 2"><g id="Слой_1-2" data-name="Слой 1"><path class="cls-1" d="M11.35,8.49h-.08V5.23a.09.09,0,0,0,0-.05,5.26,5.26,0,0,0-10.52,0,.09.09,0,0,0,0,0V8.49H.65a.65.65,0,1,0,0,1.3h10.7a.65.65,0,1,0,0-1.3ZM10,5.3h0V8.49H2V5.27a4,4,0,0,1,8,0Z"/><path class="cls-1" d="M6,12.2a1.68,1.68,0,0,0,1.69-1.67H4.32A1.68,1.68,0,0,0,6,12.2Z"/></g></g>
  </symbol> 
  <symbol id="notification-active" viewBox="0 0 12 13.07">
    <title>Notification_new</title>
    <g id="Слой_2" data-name="Слой 2">
      <g id="Слой_1-2" data-name="Слой 1">
        <path fill="#3B3A3A" d="M6,13.07a1.69,1.69,0,0,0,1.69-1.68H4.31A1.68,1.68,0,0,0,6,13.07Z"/>
        <path fill="#3B3A3A" d="M11.35,9.35h-.08V6.09a.09.09,0,0,0,0,0A4.86,4.86,0,0,0,11,4.62a3,3,0,0,1-1.17.57,4,4,0,0,1,.12.92v0h0V9.35H2V6.13a4,4,0,0,1,4-4H6A3,3,0,0,1,6.27.89,2.48,2.48,0,0,0,6,.86,5.26,5.26,0,0,0,.74,6a.09.09,0,0,0,0,0V9.35H.65a.65.65,0,1,0,0,1.3h10.7a.65.65,0,1,0,0-1.3Z"/>
        <path fill="#ff84c2" class="cls-2" d="M9.12,4.32A2.16,2.16,0,1,0,7,2.16,2.16,2.16,0,0,0,9.12,4.32Z"/>
        </g>
        </g>
  </symbol> 
  <symbol id="message" viewBox="0 0 13 10">
    <defs>
      <style>.cls-1{fill:#3B3A3A;}</style>
    </defs>
    <title>Message</title>
    <g id="Слой_2" data-name="Слой 2">
      <g id="Слой_1-2" data-name="Слой 1">
        <path class="cls-1" d="M11.8,0H1.2A1.2,1.2,0,0,0,0,1.2V8.8A1.2,1.2,0,0,0,1.2,10H11.8A1.2,1.2,0,0,0,13,8.8V1.2A1.2,1.2,0,0,0,11.8,0ZM6.57,5,2.14,1.3H11ZM11.42,8.7H1.58a.31.31,0,0,1-.3-.3V2L6,6l.06,0a.86.86,0,0,0,.51.15,1,1,0,0,0,.35-.07A.67.67,0,0,0,7.14,6l4.58-3.85V8.4A.31.31,0,0,1,11.42,8.7Z"/>
      </g>
    </g>
  </symbol>
  <symbol id="message-active" viewBox="0 0 14.62 11.51">
    <title>New_message</title>
    <g id="Слой_2" data-name="Слой 2">
      <g id="Слой_1-2" data-name="Слой 1">
        <path fill="#3B3A3A" d="M11.72,5.18V9.9a.31.31,0,0,1-.3.31H1.58a.31.31,0,0,1-.3-.31V3.52L6,7.47l.06,0a.8.8,0,0,0,.51.16,1,1,0,0,0,.35-.07.54.54,0,0,0,.23-.11l3.41-2.86a3.22,3.22,0,0,1-.74-.82L6.57,6.52,2.14,2.81H9.4a3.49,3.49,0,0,1-.06-.65,2.81,2.81,0,0,1,.07-.65H1.2A1.2,1.2,0,0,0,0,2.7v7.61a1.2,1.2,0,0,0,1.2,1.2H11.8a1.2,1.2,0,0,0,1.2-1.2V5.21a2.6,2.6,0,0,1-.56.06A3.38,3.38,0,0,1,11.72,5.18Z"/>
        <path fill="#ff84c2" d="M12.46,0a2.16,2.16,0,1,0,2.16,2.16A2.16,2.16,0,0,0,12.46,0Z"/>
      </g>
    </g>
  </symbol>
  <symbol id="search" viewBox="0 0 10.55 12.31"><defs><style>.cls-1{fill:#3B3A3A;}</style></defs><title>Search</title><g id="Слой_2" data-name="Слой 2"><g id="Слой_1-2" data-name="Слой 1"><path class="cls-1" d="M8.87,9.32a1.31,1.31,0,0,0-.12-.11,5.21,5.21,0,0,0,1.8-3.94,5.28,5.28,0,1,0-5.28,5.28,5.19,5.19,0,0,0,2.45-.63.6.6,0,0,0,.08.16L9.16,12a.66.66,0,1,0,1.08-.76ZM1.3,5.27a4,4,0,1,1,4,4A4,4,0,0,1,1.3,5.27Z"/></g></g></symbol>
</svg>